<svg xmlns="http://www.w3.org/2000/svg" width="16" height="16" viewBox="0 0 16 16">
  <g fill="#2e3436">
    <path d="M 2 2 C 1 2 1 3 1 3 L 1 13 C 1 13 1 14 2 14 L 14 14 C 15 14 15 13 15 13 L 15 3 C 15 3 15 2 14 2 L 2 2 z M 3 4 L 13 4 L 13 12 L 3 12 L 3 4 z"/>

    <circle cx="10" cy="6" r="1.5"/>
    <path d="M 4 11 L 6.5 7 L 8.5 9 L 9.5 8 L 12 11 L 4 11 z"/>

    <path d="M 0 0 L 3 0 L 3 1 L 1 1 L 1 3 L 0 3 L 0 0 Z"/>
    <path d="M 16 16 L 13 16 L 13 15 L 15 15 L 15 13 L 16 13 L 16 16 Z"/>
  </g>
</svg>
